<svg version="1.1" xmlns="http://www.w3.org/2000/svg" xmlns:xlink="http://www.w3.org/1999/xlink" width="411" height="255.17894" viewBox="0,0,411,255.17894"><defs><linearGradient x1="138.5" y1="229.125" x2="138.5" y2="140.125" gradientUnits="userSpaceOnUse" id="color-1"><stop offset="0" stop-color="#000000"/><stop offset="1" stop-color="#000000" stop-opacity="0"/></linearGradient></defs><g transform="translate(-11.5,-103)"><g data-paper-data="{&quot;isPaintingLayer&quot;:true}" fill-rule="nonzero" stroke-linejoin="miter" stroke-miterlimit="10" stroke-dasharray="" stroke-dashoffset="0" style="mix-blend-mode: normal"><path d="M228.5,109.25l9,117l41,29l111,-3l21,30l-5,69l-27,-3l-149,-1l-58,-58l-29,26l-22,23l-100,-6l-2,-48l87,-5l0.82985,-20.31881l-85.82985,-0.68119l2,-57l37,-35l99,1v-48h26l-1,134l64,66h122l3,-27l-122,-4l-47,-40l-2,-136" fill="none" stroke="#0040bf" stroke-width="12.5" stroke-linecap="round"/><path d="M142.5,187.25l1,27l-96,-1l22,-25z" fill="none" stroke="#0040bf" stroke-width="12.5" stroke-linecap="round"/><path d="M36.5,234.25l108,2l-15,61.875l-96,4" fill="none" stroke="#0040bf" stroke-width="12.5" stroke-linecap="round"/><path d="M47.5,305.125l2,10" fill="none" stroke="#0040bf" stroke-width="12.5" stroke-linecap="round"/><path d="M79.12119,320.95939l0.6568,11.16561" fill="none" stroke="#0040bf" stroke-width="12.5" stroke-linecap="round"/><path d="M38.86662,227.00673l104.51677,1.47692" fill="none" stroke="#0040bf" stroke-width="12.5" stroke-linecap="round"/><path d="M179.125,128.47917c0,3.86599 -3.3019,7 -7.375,7c-4.0731,0 -7.375,-3.13401 -7.375,-7c0,-3.86599 3.3019,-7 7.375,-7c4.0731,0 7.375,3.13401 7.375,7z" fill="#ff0000" stroke="none" stroke-width="0" stroke-linecap="butt"/><path d="M181.375,215.97917l-35,0.25" fill="none" stroke="#0040bf" stroke-width="8.5" stroke-linecap="round"/><path d="M222.7,111.29167c0,4.11452 -3.71604,7.45 -8.3,7.45c-4.58396,0 -8.3,-3.33548 -8.3,-7.45c0,-4.11452 3.71604,-7.45 8.3,-7.45c4.58396,0 8.3,3.33548 8.3,7.45z" fill="#000000" stroke="none" stroke-width="0" stroke-linecap="butt"/><path d="M265.5,140.125v89h-254v-89h123.04831l0.05425,0.02086l0.00802,-0.02086l0.17121,0c1.22296,0.60745 2.55315,0.78255 4.14363,0z" data-paper-data="{&quot;index&quot;:null}" fill="url(#color-1)" stroke="#ff0000" stroke-width="0" stroke-linecap="butt"/><path d="M11.5,358.125v-129.5h411v129.5z" fill="#000000" stroke="none" stroke-width="0" stroke-linecap="butt"/><g fill="none" stroke="#ffffff" stroke-width="2" stroke-linecap="round"><path d="M114.3,128.4125h42.8"/><path d="M145.9,119.0125l12.2,9.6"/><path d="M145.9,138.4125l12.2,-9.6" data-paper-data="{&quot;index&quot;:null}"/></g></g></g></svg>