<svg version="1.1" xmlns="http://www.w3.org/2000/svg" xmlns:xlink="http://www.w3.org/1999/xlink" width="676" height="402" viewBox="0,0,676,402"><g transform="translate(19,15.4375)"><g data-paper-data="{&quot;isPaintingLayer&quot;:true}" fill-rule="nonzero" stroke-linejoin="miter" stroke-miterlimit="10" stroke-dasharray="" stroke-dashoffset="0" style="mix-blend-mode: normal"><path d="M-19,386.5625v-402h676v402z" fill-opacity="0.61961" fill="#000000" stroke="#ff0000" stroke-width="0" stroke-linecap="butt"/><path d="M228.5,109.25l9,117l41,29l111,-3l21,30l-5,69l-27,-3l-149,-1l-58,-58l-29,26l-22,23l-100,-6l-2,-48l87,-5l0.82985,-20.31881l-85.82985,-0.68119l2,-57l37,-35l99,1v-48h26l-1,134l64,66h122l3,-27l-122,-4l-47,-40l-2,-136" fill="none" stroke="#650000" stroke-width="12.5" stroke-linecap="round"/><path d="M143,187.25l1,27l-96,-1l22,-25z" fill="none" stroke="#650000" stroke-width="12.5" stroke-linecap="round"/><path d="M36.5,234.25l108,2l-15,61.875l-96,4" fill="none" stroke="#650000" stroke-width="12.5" stroke-linecap="round"/><path d="M47.5,305.125l2,10" fill="none" stroke="#650000" stroke-width="12.5" stroke-linecap="round"/><path d="M79.12119,320.95939l0.6568,11.16561" fill="none" stroke="#650000" stroke-width="12.5" stroke-linecap="round"/><path d="M38.86662,227.00673l104.51677,1.47692" fill="none" stroke="#650000" stroke-width="12.5" stroke-linecap="round"/><path d="M179.125,128.47917c0,3.86599 -3.3019,7 -7.375,7c-4.0731,0 -7.375,-3.13401 -7.375,-7c0,-3.86599 3.3019,-7 7.375,-7c4.0731,0 7.375,3.13401 7.375,7z" fill="#ff0000" stroke="#ff0000" stroke-width="1" stroke-linecap="butt"/><path d="M146.375,216.22917l35,-0.25" fill="none" stroke="#650000" stroke-width="8.5" stroke-linecap="round"/><path d="M222.7,111.29167c0,4.11452 -3.71604,7.45 -8.3,7.45c-4.58396,0 -8.3,-3.33548 -8.3,-7.45c0,-4.11452 3.71604,-7.45 8.3,-7.45c4.58396,0 8.3,3.33548 8.3,7.45z" fill="#000000" stroke="none" stroke-width="0" stroke-linecap="butt"/><text transform="translate(17.5,122.8125) scale(0.5,0.5)" font-size="40" xml:space="preserve" fill="#000473" fill-rule="nonzero" stroke="none" stroke-width="1" stroke-linecap="butt" stroke-linejoin="miter" stroke-miterlimit="10" stroke-dasharray="" stroke-dashoffset="0" font-family="&quot;GintoNord-Medium Italic&quot;, Sans Serif" font-weight="normal" text-anchor="start" style="mix-blend-mode: normal"><tspan x="0" dy="0">Jeu 1</tspan></text><text transform="translate(257.11454,118.9375) scale(0.39166,0.39166)" font-size="40" xml:space="preserve" fill="#ffffff" fill-rule="nonzero" stroke="none" stroke-width="1" stroke-linecap="butt" stroke-linejoin="miter" stroke-miterlimit="10" stroke-dasharray="" stroke-dashoffset="0" font-family="&quot;GintoNord-Medium Italic&quot;, Sans Serif" font-weight="normal" text-anchor="start" style="mix-blend-mode: normal"><tspan x="0" dy="0">Gagner / battre votre meilleur score de </tspan><tspan x="0" dy="46.150000000000006px">temps vous fait ganger 50 points</tspan></text><text transform="translate(148.08334,228.1875) scale(0.5,0.5)" font-size="40" xml:space="preserve" fill="#ffffff" fill-rule="nonzero" stroke="none" stroke-width="1" stroke-linecap="butt" stroke-linejoin="miter" stroke-miterlimit="10" stroke-dasharray="" stroke-dashoffset="0" font-family="&quot;GintoNord-Medium Italic&quot;, Sans Serif" font-weight="normal" text-anchor="start" style="mix-blend-mode: normal"><tspan x="0" dy="0">Touché !</tspan></text><text transform="translate(148.41667,250.1875) scale(0.5,0.5)" font-size="40" xml:space="preserve" fill="#ffffff" fill-rule="nonzero" stroke="none" stroke-width="1" stroke-linecap="butt" stroke-linejoin="miter" stroke-miterlimit="10" stroke-dasharray="" stroke-dashoffset="0" font-family="&quot;GintoNord-Medium Italic&quot;, Sans Serif" font-weight="normal" text-anchor="start" style="mix-blend-mode: normal"><tspan x="0" dy="0">Touché !</tspan></text><text transform="translate(148.41667,182.52084) scale(0.5,0.5)" font-size="40" xml:space="preserve" fill="#ffffff" fill-rule="nonzero" stroke="none" stroke-width="1" stroke-linecap="butt" stroke-linejoin="miter" stroke-miterlimit="10" stroke-dasharray="" stroke-dashoffset="0" font-family="&quot;GintoNord-Medium Italic&quot;, Sans Serif" font-weight="normal" text-anchor="start" style="mix-blend-mode: normal"><tspan x="0" dy="0">Touché !</tspan></text><text transform="translate(149.41667,204.52084) scale(0.5,0.5)" font-size="40" xml:space="preserve" fill="#ffffff" fill-rule="nonzero" stroke="none" stroke-width="1" stroke-linecap="butt" stroke-linejoin="miter" stroke-miterlimit="10" stroke-dasharray="" stroke-dashoffset="0" font-family="&quot;GintoNord-Medium Italic&quot;, Sans Serif" font-weight="normal" text-anchor="start" style="mix-blend-mode: normal"><tspan x="0" dy="0">Touché !</tspan></text><text transform="translate(148.58334,317.1875) scale(0.5,0.5)" font-size="40" xml:space="preserve" fill="#ffffff" fill-rule="nonzero" stroke="none" stroke-width="1" stroke-linecap="butt" stroke-linejoin="miter" stroke-miterlimit="10" stroke-dasharray="" stroke-dashoffset="0" font-family="&quot;GintoNord-Medium Italic&quot;, Sans Serif" font-weight="normal" text-anchor="start" style="mix-blend-mode: normal"><tspan x="0" dy="0">Touché !</tspan></text><text transform="translate(148.91667,339.1875) scale(0.5,0.5)" font-size="40" xml:space="preserve" fill="#ffffff" fill-rule="nonzero" stroke="none" stroke-width="1" stroke-linecap="butt" stroke-linejoin="miter" stroke-miterlimit="10" stroke-dasharray="" stroke-dashoffset="0" font-family="&quot;GintoNord-Medium Italic&quot;, Sans Serif" font-weight="normal" text-anchor="start" style="mix-blend-mode: normal"><tspan x="0" dy="0">Touché !</tspan></text><text transform="translate(148.91667,271.52084) scale(0.5,0.5)" font-size="40" xml:space="preserve" fill="#ffffff" fill-rule="nonzero" stroke="none" stroke-width="1" stroke-linecap="butt" stroke-linejoin="miter" stroke-miterlimit="10" stroke-dasharray="" stroke-dashoffset="0" font-family="&quot;GintoNord-Medium Italic&quot;, Sans Serif" font-weight="normal" text-anchor="start" style="mix-blend-mode: normal"><tspan x="0" dy="0">Touché !</tspan></text><text transform="translate(149.91667,293.52084) scale(0.5,0.5)" font-size="40" xml:space="preserve" fill="#ffffff" fill-rule="nonzero" stroke="none" stroke-width="1" stroke-linecap="butt" stroke-linejoin="miter" stroke-miterlimit="10" stroke-dasharray="" stroke-dashoffset="0" font-family="&quot;GintoNord-Medium Italic&quot;, Sans Serif" font-weight="normal" text-anchor="start" style="mix-blend-mode: normal"><tspan x="0" dy="0">Touché !</tspan></text><g fill="none" stroke="#ffffff" stroke-width="2" stroke-linecap="round"><path d="M114.3,128.4125h42.8"/><path d="M145.9,119.0125l12.2,9.6"/><path d="M145.9,138.4125l12.2,-9.6" data-paper-data="{&quot;index&quot;:null}"/></g></g></g></svg>