<svg version="1.1" xmlns="http://www.w3.org/2000/svg" xmlns:xlink="http://www.w3.org/1999/xlink" width="676" height="402" viewBox="0,0,676,402"><g transform="translate(19,15.4375)"><g data-paper-data="{&quot;isPaintingLayer&quot;:true}" fill-rule="nonzero" stroke-linejoin="miter" stroke-miterlimit="10" stroke-dasharray="" stroke-dashoffset="0" style="mix-blend-mode: normal"><path d="M-19,386.5625v-402h676v402z" fill-opacity="0.61961" fill="#000000" stroke="#ff0000" stroke-width="0" stroke-linecap="butt"/><path d="M174.24626,274.19299c-1.88144,1.6181 -3.5277,-0.23116 -3.5277,-0.23116l-1.10165,-1.28893c-3.68386,-3.09585 -5.0714,-6.94428 -6.24243,-11.52858c-2.24106,-8.77319 -1.43968,-17.35547 -2.61663,-26.21474c-1.23584,-3.91024 -4.12348,-9.07927 -8.31455,-10.83635c-0.73755,-0.30921 -4.12117,-0.20669 -4.64329,-0.20611c-3.62277,0.00398 -7.26295,0.12044 -10.88319,-0.00136c-11.35253,-0.38195 -22.87836,-0.74467 -34.20921,-1.57295c-9.1278,0.00527 -18.19538,0.79325 -27.3076,0.78799c-13.87631,-0.008 -27.78878,-0.70599 -41.70747,-0.19826c0,0 -2.49829,0.09095 -2.59082,-2.3646c-0.09253,-2.45555 2.40576,-2.54649 2.40576,-2.54649c12.76474,-0.46374 25.73029,-0.56673 38.4581,0.20029c10.23028,0.61651 20.65985,-0.7956 30.92683,-0.79003c11.33069,0.82171 22.84044,1.18472 34.19079,1.57231c5.01617,0.17129 12.47773,-1.40627 17.27351,0.57884c5.73805,2.37515 9.60937,8.93048 11.28545,14.32571c1.21424,8.80019 0.38121,17.37575 2.58337,26.07516c0.85213,3.36627 1.71112,6.77849 4.55757,8.91559l1.69835,1.85632c0,0 1.64626,1.84926 -0.23518,3.46735z" fill="#00ffa9" stroke="none" stroke-width="0.5" stroke-linecap="butt"/><path d="M211.60448,116.70943c0.79057,-2.37171 3.16228,-1.58114 3.16228,-1.58114l1.97719,0.93727c0.88916,0.91588 1.97395,1.67599 2.66751,2.74763c2.8544,4.41045 1.73139,11.05535 1.73139,16.02014c0,3.26286 0.36027,6.73459 -0.01873,9.97213c-0.51938,4.43674 -2.31442,8.74299 -2.65645,13.23407c-0.37764,4.95869 0.00852,10.15025 0.00852,15.12713c-0.00323,5.08098 -0.12249,10.57908 0.63682,15.61488c0.2933,1.94519 1.13185,3.79068 1.34445,5.74633c0.5156,4.74295 -0.62795,9.79903 -0.64928,14.5568c-0.0131,2.922 1.7562,4.70018 2.56074,7.35753c0.58614,1.93596 0.43945,4.76777 0.44061,6.72446c0.00221,3.73153 0.03095,7.40453 0.19924,11.11122c0.62368,0.61947 0.76674,1.47779 0.76674,1.47779l0.30782,1.86867c0.44423,2.03566 1.26141,6.47269 2.37839,8.16051c0.28779,0.43487 1.03779,0.16729 1.52256,0.35949c1.58621,0.62888 3.13283,1.35571 4.67031,2.0958c3.34376,1.60959 5.75343,3.01283 8.99308,4.81527c2.51692,1.55097 4.86001,3.36871 7.32812,4.99625c2.46943,1.6284 2.77231,0.96951 5.87887,2.10778c6.69017,2.45133 13.03559,5.57692 20.03857,7.243c8.54558,2.03309 16.91429,1.09814 25.57353,1.60252c2.82157,0.16435 5.59422,0.83186 8.40885,1.08898c5.76594,0.52673 11.64904,0.2394 17.43392,0.2394c12.66667,0 25.33333,0 38,0c6.9076,0 13.39679,-0.23637 18.7412,5.03939c5.88853,5.81291 4.42547,14.99239 4.42547,22.46061c-0.0123,8.88101 -0.58164,18.16335 -1.68597,26.97675c-0.53069,4.23531 -1.10109,10.12079 -5.29694,12.55856c-2.64405,1.53618 -9.02393,0.42915 -11.67461,0.2722c-8.60822,-0.50969 -17.22298,-0.97419 -25.84249,-0.97419c-25.47136,0 -50.88519,0.66667 -76.33333,0.66667c-7.23791,0 -14.37826,0.37822 -21.49486,-1.04947c-2.1111,-0.42352 -5.39557,-0.70686 -7.26113,-2.06146c-3.82726,-2.779 -5.42112,-8.38642 -9.55833,-10.9291c-1.86826,-1.14821 -4.25449,-1.20335 -6.18288,-2.24741c-5.01627,-2.71585 -9.81659,-4.98223 -12.95612,-9.88756c0,0 -0.31408,-0.50252 -0.39174,-1.17116c-0.40724,-0.41454 -0.78293,-0.84112 -1.14952,-1.06978c-3.01031,-1.87775 -5.44825,-4.73228 -8.25586,-6.73324c-4.43497,-3.16076 -7.5994,-8.06105 -11.49515,-11.87993c-2.82002,-2.76436 -6.50458,-4.69095 -9.065,-7.67811c-1.83533,-2.14121 -3.90855,-5.53759 -6.31883,-7.03634c-3.60817,-2.24361 -8.14424,-1.08819 -11.54038,0.49767c-2.92881,1.36764 -5.40551,9.04525 -6.8664,11.65411c-7.00621,12.51167 -16.1459,23.41724 -29.3433,29.07426c-0.42813,0.18352 -5.13705,2.51783 -7.87924,3.49496c-0.34184,0.22769 -0.74294,0.37344 -1.17524,0.40919c-1.65481,1.24868 -4.39426,2.0402 -5.78659,2.11732c-2.28329,0.12646 -7.7939,0.76384 -10.2484,-0.79811c-1.59691,-1.01621 -1.72261,-3.52765 -3.42827,-4.79726c-1.94295,-1.44623 -4.70882,-2.24613 -6.86008,-3.48084c-2.00937,-1.15326 -4.6338,-0.06772 -6.95034,-0.03251c-2.36574,0.03596 -4.73781,-0.04194 -7.09659,0.14285c-2.17294,0.17023 -9.17444,5.75985 -11.7212,7.10838c-1.95764,1.03659 -4.23588,3.95995 -6.19011,4.44851c-5.39114,1.34778 -14.68637,-1.45762 -19.95323,-2.94612c-1.67287,-0.47278 -3.62307,-0.34524 -5.23494,-1.01757c-7.11924,-2.96952 -5.76659,-12.15658 -6.71307,-17.98904c-0.21458,-1.32231 -1.2198,-6.78528 -0.25048,-7.6094c-0.07231,-0.28704 -0.11816,-0.55185 -0.1327,-0.78048c-0.21729,-3.41695 2.82169,-4.47664 5.68889,-5.10639c3.83778,-0.84292 15.61065,-1.20882 20.5254,-1.25075c10.2954,-0.08784 19.55756,-0.04339 30.38025,-0.14286c5.70332,-0.05242 11.92338,-1.77396 17.62939,-2.27042c2.06145,-0.17936 15.04673,-0.92206 16.4857,-1.44387c0.27351,-0.09918 0.42145,-7.88468 0.43323,-8.5c0.0737,-3.85035 1.18173,-7.85947 1.28572,-11.54265c0.07251,-2.56795 -0.90947,-6.04456 -0.99829,-8.65053c-0.0189,-0.55436 0.9999,-5.97344 0.81064,-6.36377c-0.89184,-1.83932 -5.34642,-0.51253 -5.74092,-0.51448c-6.13515,-0.03027 -11.84226,-0.98328 -18.14285,-1c-18.51394,-0.04913 -37.03,-0.98444 -55.57143,-1c-4.40993,-0.0037 -10.1216,0.22269 -12.22885,-4.42372c-1.78645,-3.93905 -0.46477,-8.64272 1.35451,-12.1724c0.35572,-0.69015 0.52793,-2.558 1.0461,-3.61621c0.5274,-3.19699 1.80726,-9.57511 1.87789,-9.69142c0.67693,-1.1148 3.10166,-2.22545 3.40105,-3.59733c0.50021,-2.29207 -0.29921,-3.63702 0.88466,-5.54552c2.21621,-3.57271 4.89386,-7.78329 7.46831,-11.0783c2.18868,-2.80128 6.16982,-4.63179 8.68209,-7.39639c1.89183,-2.08184 2.61817,-5.04976 4.46076,-7.17504c3.31296,-3.82124 10.18886,-5.46468 14.64379,-7.24666c0.25408,-0.10852 0.52978,-0.17616 0.81884,-0.19468c1.10789,-0.52712 2.48377,-0.73504 3.4806,-0.73504c6.3839,0 12.65444,0.64411 18.99871,0.72986c7.75237,0.10478 15.36481,0.47358 23.09892,0c8.52488,-0.522 11.54178,-2.27757 22.29708,-1.41617c3.44854,0.2762 6.71475,1.72207 10.24386,1.84473c3.02445,0.10512 6.12461,-0.65649 9.07881,0c2.72064,0.60459 6.34442,1.96735 8.95408,0.9277c2.15248,-0.85752 0.78044,-5.80414 1.84947,-6.97558c-0.21497,-0.85588 -0.29355,-1.76395 -0.33927,-2.46282c-0.44197,-6.7558 0.83123,-14.14398 0.9,-20.90691c0.01967,-1.93386 0.29881,-5.96534 0.0193,-8.48091c-0.01274,-0.10227 -0.0193,-0.20646 -0.0193,-0.31218c0,-0.46463 0.12675,-0.89965 0.34755,-1.27237c0.65985,-1.73331 1.74268,-1.86961 2.70892,-1.16547c1.11286,0.25297 1.94352,1.2484 1.94352,2.43784c0,0.22072 -0.02861,0.43475 -0.08231,0.63861c0.14348,0.57164 0.21277,1.17073 0.18231,1.76139c-0.11819,2.29175 0.05365,4.71212 -0.13402,7.011c-0.57043,6.98773 -0.89132,14.75105 -0.46598,21.68901c0.05678,0.92628 0.01274,2.00645 -0.48566,2.75969c0.02987,0.1212 0.0562,0.24405 0.07907,0.36837c0.77725,4.22538 -2.45154,10.14134 -7.02913,10.26837c-5.41003,0.15013 -11.81227,-1.25321 -17.71428,-1.28572c-0.13746,-0.00075 -0.27501,-0.01386 -0.411,-0.03401c-3.20374,-0.47474 -6.79537,-1.80115 -9.99941,-1.82313c-15.2729,-0.10471 -29.97524,2.24306 -45.29759,1.39443c-6.21886,-0.34443 -12.31969,-0.68298 -18.57595,-0.68015c-0.51376,0.00024 -1.22226,0.14255 -1.96022,0.25089c-1.74054,1.43409 -4.89686,1.23288 -6.75988,2.08784c-1.85907,0.85315 -3.75855,2.6771 -5.79618,3.64538c-2.58445,1.22813 -3.36297,5.67161 -5.32485,7.71223c-1.98586,2.06556 -7.45357,5.65508 -8.63278,7.40958c-2.25812,3.35977 -4.98316,6.868 -7.00173,10.34635c-0.79277,1.36608 0.27154,3.69401 -0.66921,5.26192c-0.85939,1.43232 -3.03151,2.55497 -3.61628,3.96615c-0.68383,1.65026 -0.01806,6.91887 -1.2869,9.21741c-0.08038,1.79704 -2.22992,3.24749 -2.65952,6.14206c-0.17159,1.15616 -1.01514,5.44263 0.64906,6.17025c1.8693,0.8173 5.09294,0.63402 7.08349,0.64709c5.10822,0.03354 13.40375,-0.01558 18.51207,-0.01558c12.32888,0 24.76285,0.88141 37.1103,1.01558c6.49658,0.07059 11.91695,0.82132 18.13795,1c2.22961,0.06404 6.98642,-1.08965 8.98782,1.24532c2.42429,2.82834 0.95817,5.27951 0.83226,8.41033c-0.15857,3.94313 1.01557,7.54389 1.01557,11.41889c0,1.89568 -1.01479,4.0598 -1.01557,5.87609c-0.00186,4.30766 1.01679,13.21843 -1.72231,16.86413c-1.92147,2.55745 -10.3557,2.50206 -14.45717,2.75668c-7.73981,0.48049 -15.78571,2.69915 -23.46339,2.71429c-7.86476,0.01551 -15.72954,-0.00484 -23.5943,0c-5.74895,0.00354 -11.42122,1.0799 -17.11998,1.14286c-3.1979,0.03533 -6.52232,-0.72921 -9.59288,0.16494c-2.14071,0.62338 0.95301,4.1882 -1.24455,5.25059c0.34562,3.87685 -0.61186,8.6051 0.4545,11.51619c0.69023,1.88429 2.00561,4.02496 3.56916,5.20769c0.86765,0.65632 3.24899,0.49289 4.3561,0.77726c2.73573,0.70272 14.32295,3.70332 16.6467,2.94047c5.95725,-1.95567 12.46741,-10.27338 18.73469,-11.58599c3.81669,-0.79936 11.84799,-0.32647 15.64771,-0.27115c3.46281,0.05041 8.20402,3.46713 10.95285,5.66129c1.04638,0.83524 0.83209,3.22379 2.16114,3.3856c2.53821,0.30901 5.1927,0.35711 7.71967,-0.01205c1.33979,-0.19572 2.26096,-2.82331 3.993,-2.4769c0.26922,0.05385 0.51492,0.11317 0.7382,0.17964c4.2408,-3.07391 12.56624,-4.86064 16.40384,-8.02752c7.58017,-6.25535 13.74154,-14.61317 18.5708,-23.15736c3.77133,-6.67244 7.14391,-16.37076 16.92399,-14.90663c10.3751,1.5532 10.02977,5.01756 17.06744,11.70646c6.31799,6.00489 13.31245,11.39469 19.09607,17.96362c0.70875,0.80499 8.43023,5.66952 9.69687,9.06596c0.20902,0.22017 0.31995,0.39766 0.31995,0.39766c2.45869,4.06101 6.95889,5.86632 11.04388,8.11245c2.02139,1.11147 4.53392,1.18662 6.48379,2.41926c1.81106,1.14488 5.14466,4.77426 6.60163,6.52067c1.5591,1.86883 1.16016,3.04833 3.17336,4.55023c0.85786,0.63998 5.07725,1.20642 5.40554,1.27186c6.77847,1.35117 13.60864,0.95054 20.50513,0.95054c25.4479,0 50.86207,-0.66667 76.33333,-0.66667c8.71816,0 17.43158,0.46733 26.13804,0.98293c0.75617,0.04478 7.57789,1.09943 9.01154,0.31509c2.31008,-1.26384 2.43538,-6.6279 2.70306,-8.77477c1.07346,-8.60943 1.66054,-17.68545 1.64736,-26.35658c0,-5.59575 1.66952,-14.59262 -2.90786,-18.87273c-4.48697,-4.19557 -9.58125,-3.62727 -15.2588,-3.62727c-12.66667,0 -25.33333,0 -38,0c-5.93962,0 -11.96625,0.27659 -17.88694,-0.25997c-2.76875,-0.25092 -5.49481,-0.91821 -8.2703,-1.07832c-8.95628,-0.51665 -17.58306,0.37628 -26.42647,-1.73082c-7.20416,-1.71652 -13.74217,-4.91018 -20.6281,-7.42366c-2.27144,-0.82912 -4.74822,-1.26005 -6.7878,-2.55889c-2.44782,-1.55881 -4.71593,-3.39206 -7.18846,-4.91139c-4.3098,-2.39719 -8.61245,-4.5601 -13.08927,-6.62277c-1.07637,-0.49593 -2.47034,-0.60497 -3.2082,-1.53237c-1.65286,-2.07743 -2.90462,-7.34223 -3.55838,-10.22656c-1.03373,-0.6529 -1.11789,-1.99931 -1.11789,-1.99931c-0.35372,-5.67788 -0.09031,-11.32839 -0.33337,-17.00061c-0.16427,-3.83344 -2.95006,-6.71188 -3.00349,-10.74003c-0.06079,-4.5831 1.2049,-9.54752 0.68405,-14.10986c-0.21707,-1.90142 -1.03959,-3.69421 -1.32222,-5.587c-0.79105,-5.29771 -0.69327,-11.0413 -0.69651,-16.38513c0,-5.11302 -0.38679,-10.44628 0.00852,-15.53953c0.35422,-4.56387 2.14417,-8.93164 2.67688,-13.43259c0.3588,-3.03163 -0.01873,-6.30206 -0.01873,-9.3612c0,-5.44887 1.26758,-11.19866 -2.93443,-15.23224l-0.02281,0.27061c0,0 -2.37171,-0.79057 -1.58114,-3.16228z" fill="#00ffa9" stroke="none" stroke-width="0.5" stroke-linecap="butt"/><path d="M228.5,109.25l9,117l41,29l111,-3l21,30l-5,69l-27,-3l-149,-1l-58,-58l-29,26l-22,23l-100,-6l-2,-48l87,-5l0.82985,-20.31881l-85.82985,-0.68119l2,-57l37,-35l99,1v-48h26l-1,134l64,66h122l3,-27l-122,-4l-47,-40l-2,-136" fill="none" stroke="#0040bf" stroke-width="12.5" stroke-linecap="round"/><path d="M142.5,187.25l1,27l-96,-1l22,-25z" fill="none" stroke="#0040bf" stroke-width="12.5" stroke-linecap="round"/><path d="M36.5,234.25l108,2l-15,61.875l-96,4" fill="none" stroke="#0040bf" stroke-width="12.5" stroke-linecap="round"/><path d="M49.5,315.125l-2,-10" fill="none" stroke="#0040bf" stroke-width="12.5" stroke-linecap="round"/><path d="M79.12119,320.95939l0.6568,11.16561" fill="none" stroke="#0040bf" stroke-width="12.5" stroke-linecap="round"/><path d="M143.38339,228.48365l-104.51677,-1.47692" fill="none" stroke="#0040bf" stroke-width="12.5" stroke-linecap="round"/><path d="M179.125,128.47917c0,3.86599 -3.3019,7 -7.375,7c-4.0731,0 -7.375,-3.13401 -7.375,-7c0,-3.86599 3.3019,-7 7.375,-7c4.0731,0 7.375,3.13401 7.375,7z" fill="#000000" stroke="#ff0000" stroke-width="1" stroke-linecap="butt"/><path d="M181.375,215.97917l-35,0.25" fill="none" stroke="#0040bf" stroke-width="8.5" stroke-linecap="round"/><path d="M222.7,111.29167c0,4.11452 -3.71604,7.45 -8.3,7.45c-4.58396,0 -8.3,-3.33548 -8.3,-7.45c0,-4.11452 3.71604,-7.45 8.3,-7.45c4.58396,0 8.3,3.33548 8.3,7.45z" fill="#00ff46" stroke="none" stroke-width="0" stroke-linecap="butt"/><text transform="translate(17.5,122.8125) scale(0.5,0.5)" font-size="40" xml:space="preserve" fill="#000473" fill-rule="nonzero" stroke="none" stroke-width="1" stroke-linecap="butt" stroke-linejoin="miter" stroke-miterlimit="10" stroke-dasharray="" stroke-dashoffset="0" font-family="&quot;GintoNord-Medium Italic&quot;, Sans Serif" font-weight="normal" text-anchor="start" style="mix-blend-mode: normal"><tspan x="0" dy="0">Jeu 1</tspan></text><text transform="translate(257.11454,118.9375) scale(0.39166,0.39166)" font-size="40" xml:space="preserve" fill="#ffffff" fill-rule="nonzero" stroke="none" stroke-width="1" stroke-linecap="butt" stroke-linejoin="miter" stroke-miterlimit="10" stroke-dasharray="" stroke-dashoffset="0" font-family="&quot;GintoNord-Medium Italic&quot;, Sans Serif" font-weight="normal" text-anchor="start" style="mix-blend-mode: normal"><tspan x="0" dy="0">Gagner / battre votre meilleur score de </tspan><tspan x="0" dy="46.15px">temps vous fait ganger 50 points</tspan></text></g></g></svg>